<svg width="295" height="417" viewBox="0 0 295 417" fill="none" xmlns="http://www.w3.org/2000/svg">
<rect x="6.95622" y="0.5" width="281.584" height="416" rx="140.792" stroke="#1E1E1E"/>
<rect x="12.4192" y="0.5" width="282.081" height="416" rx="141.04" stroke="#1E1E1E"/>
<rect x="0.5" y="0.5" width="282.081" height="416" rx="141.04" stroke="#1E1E1E"/>
<path d="M66.6302 197L63.5502 190.2H45.6302L42.5502 197H41.1102L53.9102 169H55.3102L68.0702 197H66.6302ZM46.1502 189.04H63.0302L54.6302 170.44H54.5502L46.1502 189.04ZM72.1739 197V169H84.8139C90.1739 169 93.1739 171.4 93.1739 175.8C93.1739 179.08 91.1739 181.32 88.4539 182V182.08C91.8939 182.68 94.2139 185.16 94.2139 189.08C94.2139 194.32 90.9739 197 84.6939 197H72.1739ZM73.4539 181.6H84.3339C89.1739 181.6 91.8139 179.56 91.8139 175.8C91.8139 172.16 89.3739 170.2 84.7739 170.2H73.4539V181.6ZM73.4539 195.8H84.6139C90.0939 195.8 92.8539 193.56 92.8539 189.08C92.8539 184.84 90.2939 182.76 84.9739 182.76H73.4539V195.8ZM110.694 197.6C103.014 197.6 98.4142 193.8 98.1342 187.24L99.4542 187.08C99.7742 193.08 103.734 196.4 110.694 196.4C116.414 196.4 120.014 193.92 120.014 190C120.014 186.16 117.214 184.32 109.414 182.84C101.734 181.36 98.9742 179.48 98.9742 175.8C98.9742 171.36 102.934 168.4 108.894 168.4C114.814 168.4 119.294 171.96 119.854 177.16L118.534 177.32C118.014 172.68 114.174 169.6 108.894 169.6C103.694 169.6 100.294 172.04 100.294 175.76C100.294 178.84 102.654 180.28 109.774 181.64C118.094 183.28 121.374 185.56 121.374 190C121.374 194.6 117.174 197.6 110.694 197.6ZM133.66 197V170.2H122.74V169H145.94V170.2H134.98V197H133.66ZM164.235 184.64V184.8L171.915 197H170.315L162.715 184.76H152.595V197H151.275V169H164.075C169.715 169 173.035 171.76 173.035 176.96C173.035 181.92 169.795 184.76 164.555 184.76L164.235 184.64ZM152.595 183.52H164.115C169.075 183.52 171.715 181.16 171.715 176.96C171.715 172.52 169.115 170.2 163.915 170.2H152.595V183.52ZM200.302 197L197.222 190.2H179.302L176.222 197H174.782L187.582 169H188.982L201.742 197H200.302ZM179.822 189.04H196.702L188.302 170.44H188.222L179.822 189.04ZM216.404 197.6C208.564 197.6 202.284 191.8 202.284 183C202.284 174.2 208.564 168.4 216.404 168.4C222.484 168.4 227.764 171.76 229.324 178L228.044 178.32C226.524 172.52 221.764 169.6 216.404 169.6C209.284 169.6 203.644 174.88 203.644 183C203.644 191.12 209.284 196.4 216.404 196.4C221.804 196.4 226.644 193.48 228.124 187.24L229.404 187.56C227.844 194.2 222.484 197.6 216.404 197.6ZM241.394 197V170.2H230.474V169H253.674V170.2H242.714V197H241.394ZM94.9278 250V222H96.2478V248.8H112.608V250H94.9278ZM117.936 250V222H119.256V250H117.936ZM127.037 250V222H128.477L147.797 248H147.877V222H149.197V250H147.757L128.437 223.96H128.357V250H127.037ZM157.037 250V222H176.237V223.2H158.357V234.92H175.117V236.08H158.357V248.8H176.237V250H157.037ZM192.745 250.6C185.065 250.6 180.465 246.8 180.185 240.24L181.505 240.08C181.825 246.08 185.785 249.4 192.745 249.4C198.465 249.4 202.065 246.92 202.065 243C202.065 239.16 199.265 237.32 191.465 235.84C183.785 234.36 181.025 232.48 181.025 228.8C181.025 224.36 184.985 221.4 190.945 221.4C196.865 221.4 201.345 224.96 201.905 230.16L200.585 230.32C200.065 225.68 196.225 222.6 190.945 222.6C185.745 222.6 182.345 225.04 182.345 228.76C182.345 231.84 184.705 233.28 191.825 234.64C200.145 236.28 203.425 238.56 203.425 243C203.425 247.6 199.225 250.6 192.745 250.6Z" fill="#1E1E1E"/>
</svg>
