<svg width="295" height="417" viewBox="0 0 295 417" fill="none" xmlns="http://www.w3.org/2000/svg">
<rect x="6.95622" y="0.5" width="281.584" height="416" rx="140.792" stroke="#F6F6F0"/>
<rect x="12.4192" y="0.5" width="282.081" height="416" rx="141.04" stroke="#F6F6F0"/>
<rect x="0.5" y="0.5" width="282.081" height="416" rx="141.04" stroke="#F6F6F0"/>
<path d="M83.3684 208L80.2884 201.2H62.3684L59.2884 208H57.8484L70.6484 180H72.0484L84.8084 208H83.3684ZM62.8884 200.04H79.7684L71.3684 181.44H71.2884L62.8884 200.04ZM88.9122 208V180H90.2322V206.8H106.592V208H88.9122ZM111.92 208V180H113.76L127.04 205.92H127.12L140.4 180H142.24V208H140.88V181.84H140.8L127.4 208H126.76L113.32 181.84H113.24V208H111.92ZM162.205 208.6C154.245 208.6 148.085 202.8 148.085 194C148.085 185.2 154.245 179.4 162.205 179.4C170.165 179.4 176.325 185.2 176.325 194C176.325 202.8 170.165 208.6 162.205 208.6ZM162.205 207.4C169.445 207.4 174.965 202.12 174.965 194C174.965 185.88 169.445 180.6 162.205 180.6C154.965 180.6 149.445 185.88 149.445 194C149.445 202.12 154.965 207.4 162.205 207.4ZM182.193 208V180H183.633L202.953 206H203.033V180H204.353V208H202.913L183.593 181.96H183.513V208H182.193ZM212.193 208V180H222.953C231.473 180 236.393 185.16 236.393 194C236.393 202.88 231.513 208 222.993 208H212.193ZM213.513 206.8H223.153C230.753 206.8 235.073 202.2 235.073 194C235.073 185.84 230.713 181.2 223.113 181.2H213.513V206.8ZM94.0098 261V233H95.4498L114.77 259H114.85V233H116.17V261H114.73L95.4098 234.96H95.3298V261H94.0098ZM145.81 261L142.73 254.2H124.81L121.73 261H120.29L133.09 233H134.49L147.25 261H145.81ZM125.33 253.04H142.21L133.81 234.44H133.73L125.33 253.04ZM151.354 261V233H152.674V261H151.354ZM160.455 261V233H161.775V259.8H178.135V261H160.455ZM193.663 261.6C185.983 261.6 181.383 257.8 181.103 251.24L182.423 251.08C182.743 257.08 186.703 260.4 193.663 260.4C199.383 260.4 202.983 257.92 202.983 254C202.983 250.16 200.183 248.32 192.383 246.84C184.703 245.36 181.943 243.48 181.943 239.8C181.943 235.36 185.903 232.4 191.863 232.4C197.783 232.4 202.263 235.96 202.823 241.16L201.503 241.32C200.983 236.68 197.143 233.6 191.863 233.6C186.663 233.6 183.263 236.04 183.263 239.76C183.263 242.84 185.623 244.28 192.743 245.64C201.063 247.28 204.343 249.56 204.343 254C204.343 258.6 200.143 261.6 193.663 261.6Z" fill="white"/>
</svg>
