<svg width="295" height="417" viewBox="0 0 295 417" fill="none" xmlns="http://www.w3.org/2000/svg">
<rect x="6.95622" y="0.5" width="281.584" height="416" rx="140.792" stroke="#F6F6F0"/>
<rect x="12.4192" y="0.5" width="282.081" height="416" rx="141.04" stroke="#F6F6F0"/>
<rect x="0.5" y="0.5" width="282.081" height="416" rx="141.04" stroke="#F6F6F0"/>
<path d="M87.9863 197.6C80.1463 197.6 73.8663 191.8 73.8663 183C73.8663 174.2 80.1463 168.4 87.9863 168.4C94.0663 168.4 99.3463 171.76 100.906 178L99.6263 178.32C98.1063 172.52 93.3463 169.6 87.9863 169.6C80.8663 169.6 75.2263 174.88 75.2263 183C75.2263 191.12 80.8663 196.4 87.9863 196.4C93.3863 196.4 98.2263 193.48 99.7063 187.24L100.986 187.56C99.4263 194.2 94.0663 197.6 87.9863 197.6ZM118.611 197.6C110.651 197.6 104.491 191.8 104.491 183C104.491 174.2 110.651 168.4 118.611 168.4C126.571 168.4 132.731 174.2 132.731 183C132.731 191.8 126.571 197.6 118.611 197.6ZM118.611 196.4C125.851 196.4 131.371 191.12 131.371 183C131.371 174.88 125.851 169.6 118.611 169.6C111.371 169.6 105.851 174.88 105.851 183C105.851 191.12 111.371 196.4 118.611 196.4ZM138.6 197V169H157.84V170.2H139.92V182.88H156.72V184.04H139.92V197H138.6ZM163.756 197V169H182.996V170.2H165.076V182.88H181.876V184.04H165.076V197H163.756ZM188.912 197V169H190.232V197H188.912ZM198.014 197V169H199.454L218.774 195H218.854V169H220.174V197H218.734L199.414 170.96H199.334V197H198.014ZM94.0098 250V222H95.4498L114.77 248H114.85V222H116.17V250H114.73L95.4098 223.96H95.3298V250H94.0098ZM145.81 250L142.73 243.2H124.81L121.73 250H120.29L133.09 222H134.49L147.25 250H145.81ZM125.33 242.04H142.21L133.81 223.44H133.73L125.33 242.04ZM151.354 250V222H152.674V250H151.354ZM160.455 250V222H161.775V248.8H178.135V250H160.455ZM193.663 250.6C185.983 250.6 181.383 246.8 181.103 240.24L182.423 240.08C182.743 246.08 186.703 249.4 193.663 249.4C199.383 249.4 202.983 246.92 202.983 243C202.983 239.16 200.183 237.32 192.383 235.84C184.703 234.36 181.943 232.48 181.943 228.8C181.943 224.36 185.903 221.4 191.863 221.4C197.783 221.4 202.263 224.96 202.823 230.16L201.503 230.32C200.983 225.68 197.143 222.6 191.863 222.6C186.663 222.6 183.263 225.04 183.263 228.76C183.263 231.84 185.623 233.28 192.743 234.64C201.063 236.28 204.343 238.56 204.343 243C204.343 247.6 200.143 250.6 193.663 250.6Z" fill="white"/>
</svg>
