<svg width="295" height="417" viewBox="0 0 295 417" fill="none" xmlns="http://www.w3.org/2000/svg">
<rect x="6.95622" y="0.5" width="281.584" height="416" rx="140.792" stroke="#1E1E1E"/>
<rect x="12.4192" y="0.5" width="282.081" height="416" rx="141.04" stroke="#1E1E1E"/>
<rect x="0.5" y="0.5" width="282.081" height="416" rx="141.04" stroke="#1E1E1E"/>
<path d="M36.8692 203V175H56.1092V176.2H38.1892V188.88H54.9892V190.04H38.1892V203H36.8692ZM72.9855 203.6C65.5855 203.6 61.8255 200.04 61.8255 192.44V175H63.1455V192.44C63.1455 199.48 66.3855 202.4 72.9855 202.4C79.5855 202.4 82.8255 199.44 82.8255 192.44V175H84.1455V192.44C84.1455 200.08 80.4255 203.6 72.9855 203.6ZM91.7911 203V175H93.1111V201.8H109.471V203H91.7911ZM114.799 203V175H116.119V201.8H132.479V203H114.799ZM148.94 203V175H150.26V187.92H169.42V175H170.74V203H169.42V189.08H150.26V203H148.94ZM200.349 203L197.269 196.2H179.349L176.269 203H174.829L187.629 175H189.029L201.789 203H200.349ZM179.869 195.04H196.749L188.349 176.44H188.269L179.869 195.04ZM205.893 203V175H207.333L226.653 201H226.733V175H228.053V203H226.613L207.293 176.96H207.213V203H205.893ZM235.893 203V175H246.653C255.173 175 260.093 180.16 260.093 189C260.093 197.88 255.213 203 246.693 203H235.893ZM237.213 201.8H246.853C254.453 201.8 258.773 197.2 258.773 189C258.773 180.84 254.413 176.2 246.813 176.2H237.213V201.8ZM55.3067 256V228H66.0667C74.5867 228 79.5067 233.16 79.5067 242C79.5067 250.88 74.6267 256 66.1067 256H55.3067ZM56.6267 254.8H66.2667C73.8667 254.8 78.1867 250.2 78.1867 242C78.1867 233.84 73.8267 229.2 66.2267 229.2H56.6267V254.8ZM98.3448 243.64V243.8L106.025 256H104.425L96.8248 243.76H86.7048V256H85.3848V228H98.1848C103.825 228 107.145 230.76 107.145 235.96C107.145 240.92 103.905 243.76 98.6648 243.76L98.3448 243.64ZM86.7048 242.52H98.2248C103.185 242.52 105.825 240.16 105.825 235.96C105.825 231.52 103.225 229.2 98.0248 229.2H86.7048V242.52ZM134.411 256L131.331 249.2H113.411L110.331 256H108.891L121.691 228H123.091L135.851 256H134.411ZM113.931 248.04H130.811L122.411 229.44H122.331L113.931 248.04ZM142.227 256L135.507 228H136.867L143.147 254.04H143.227L153.507 228H154.787L165.067 254.04H165.147L171.427 228H172.787L166.067 256H164.547L154.187 229.88H154.107L143.747 256H142.227ZM177.494 256V228H178.814V256H177.494ZM186.596 256V228H188.036L207.356 254H207.436V228H208.756V256H207.316L187.996 229.96H187.916V256H186.596ZM228.716 256.6C220.556 256.6 214.636 250.44 214.636 242C214.636 233.56 220.556 227.4 228.716 227.4C235.116 227.4 239.996 231.16 241.476 236.72L240.196 237.08C238.796 231.96 234.476 228.6 228.716 228.6C221.316 228.6 215.996 234.2 215.996 242C215.996 249.8 221.316 255.4 228.716 255.4C235.596 255.4 240.356 250.72 240.356 244.4H229.156V243.28H241.636V244.48C241.636 251.48 236.276 256.6 228.716 256.6Z" fill="#1E1E1E"/>
</svg>
