<svg width="295" height="417" viewBox="0 0 295 417" fill="none" xmlns="http://www.w3.org/2000/svg">
<rect x="6.95622" y="0.5" width="281.584" height="416" rx="140.792" stroke="#1E1E1E"/>
<rect x="12.4192" y="0.5" width="282.081" height="416" rx="141.04" stroke="#1E1E1E"/>
<rect x="0.5" y="0.5" width="282.081" height="416" rx="141.04" stroke="#1E1E1E"/>
<path d="M87.0841 196V168H88.4041V194.8H104.764V196H87.0841ZM110.092 196V168H111.412V196H110.092ZM131.313 196.6C123.153 196.6 117.233 190.44 117.233 182C117.233 173.56 123.153 167.4 131.313 167.4C137.713 167.4 142.593 171.16 144.073 176.72L142.793 177.08C141.393 171.96 137.073 168.6 131.313 168.6C123.913 168.6 118.593 174.2 118.593 182C118.593 189.8 123.913 195.4 131.313 195.4C138.193 195.4 142.953 190.72 142.953 184.4H131.753V183.28H144.233V184.48C144.233 191.48 138.873 196.6 131.313 196.6ZM150.131 196V168H151.451V180.92H170.611V168H171.931V196H170.611V182.08H151.451V196H150.131ZM188.14 196V169.2H177.22V168H200.42V169.2H189.46V196H188.14ZM38.5927 249.6C30.9127 249.6 26.3127 245.8 26.0327 239.24L27.3527 239.08C27.6727 245.08 31.6327 248.4 38.5927 248.4C44.3127 248.4 47.9127 245.92 47.9127 242C47.9127 238.16 45.1127 236.32 37.3127 234.84C29.6327 233.36 26.8727 231.48 26.8727 227.8C26.8727 223.36 30.8327 220.4 36.7927 220.4C42.7127 220.4 47.1927 223.96 47.7527 229.16L46.4327 229.32C45.9127 224.68 42.0727 221.6 36.7927 221.6C31.5927 221.6 28.1927 224.04 28.1927 227.76C28.1927 230.84 30.5527 232.28 37.6727 233.64C45.9927 235.28 49.2727 237.56 49.2727 242C49.2727 246.6 45.0727 249.6 38.5927 249.6ZM58.3598 249L51.6398 221H52.9998L59.2798 247.04H59.3598L69.6398 221H70.9198L81.1998 247.04H81.2798L87.5598 221H88.9198L82.1998 249H80.6798L70.3198 222.88H70.2398L59.8798 249H58.3598ZM114.099 249L111.019 242.2H93.0989L90.0189 249H88.5789L101.379 221H102.779L115.539 249H114.099ZM93.6189 241.04H110.499L102.099 222.44H102.019L93.6189 241.04ZM132.603 236.64V236.8L140.283 249H138.683L131.083 236.76H120.963V249H119.643V221H132.443C138.083 221 141.403 223.76 141.403 228.96C141.403 233.92 138.163 236.76 132.923 236.76L132.603 236.64ZM120.963 235.52H132.483C137.443 235.52 140.083 233.16 140.083 228.96C140.083 224.52 137.483 222.2 132.283 222.2H120.963V235.52ZM159.029 249.6C151.069 249.6 144.909 243.8 144.909 235C144.909 226.2 151.069 220.4 159.029 220.4C166.989 220.4 173.149 226.2 173.149 235C173.149 243.8 166.989 249.6 159.029 249.6ZM159.029 248.4C166.269 248.4 171.789 243.12 171.789 235C171.789 226.88 166.269 221.6 159.029 221.6C151.789 221.6 146.269 226.88 146.269 235C146.269 243.12 151.789 248.4 159.029 248.4ZM186.418 249L173.618 221H175.098L187.098 247.44H187.178L199.218 221H200.698L187.898 249H186.418ZM214.53 249.6C206.85 249.6 202.25 245.8 201.97 239.24L203.29 239.08C203.61 245.08 207.57 248.4 214.53 248.4C220.25 248.4 223.85 245.92 223.85 242C223.85 238.16 221.05 236.32 213.25 234.84C205.57 233.36 202.81 231.48 202.81 227.8C202.81 223.36 206.77 220.4 212.73 220.4C218.65 220.4 223.13 223.96 223.69 229.16L222.37 229.32C221.85 224.68 218.01 221.6 212.73 221.6C207.53 221.6 204.13 224.04 204.13 227.76C204.13 230.84 206.49 232.28 213.61 233.64C221.93 235.28 225.21 237.56 225.21 242C225.21 246.6 221.01 249.6 214.53 249.6ZM230.697 249V221H232.017V237.76H232.097L249.017 221H250.937L238.697 233L250.977 249H249.297L237.817 233.92H237.737L232.017 239.64V249H230.697ZM255.346 249V221H256.666V249H255.346Z" fill="#1E1E1E"/>
</svg>
