<svg width="295" height="417" viewBox="0 0 295 417" fill="none" xmlns="http://www.w3.org/2000/svg">
<rect x="6.95622" y="0.5" width="281.584" height="416" rx="140.792" stroke="#F6F6F0"/>
<rect x="12.4192" y="0.5" width="282.081" height="416" rx="141.04" stroke="#F6F6F0"/>
<rect x="0.5" y="0.5" width="282.081" height="416" rx="141.04" stroke="#F6F6F0"/>
<path d="M83.9352 168L95.2552 153.8L84.2552 140H85.8952L96.0952 152.84H96.1752L106.295 140H108.055L97.0152 153.8L108.335 168H106.615L96.1752 154.76H96.0952L85.6152 168H83.9352ZM112.65 168V140H113.97V166.8H130.33V168H112.65ZM158.17 168.6C150.21 168.6 144.05 162.8 144.05 154C144.05 145.2 150.21 139.4 158.17 139.4C166.13 139.4 172.29 145.2 172.29 154C172.29 162.8 166.13 168.6 158.17 168.6ZM158.17 167.4C165.41 167.4 170.93 162.12 170.93 154C170.93 145.88 165.41 140.6 158.17 140.6C150.93 140.6 145.41 145.88 145.41 154C145.41 162.12 150.93 167.4 158.17 167.4ZM191.118 155.64V155.8L198.798 168H197.198L189.598 155.76H179.478V168H178.158V140H190.958C196.598 140 199.918 142.76 199.918 147.96C199.918 152.92 196.678 155.76 191.438 155.76L191.118 155.64ZM179.478 154.52H190.998C195.958 154.52 198.598 152.16 198.598 147.96C198.598 143.52 195.998 141.2 190.798 141.2H179.478V154.52ZM86.327 221.6C78.647 221.6 74.047 217.8 73.767 211.24L75.087 211.08C75.407 217.08 79.367 220.4 86.327 220.4C92.047 220.4 95.647 217.92 95.647 214C95.647 210.16 92.847 208.32 85.047 206.84C77.367 205.36 74.607 203.48 74.607 199.8C74.607 195.36 78.567 192.4 84.527 192.4C90.447 192.4 94.927 195.96 95.487 201.16L94.167 201.32C93.647 196.68 89.807 193.6 84.527 193.6C79.327 193.6 75.927 196.04 75.927 199.76C75.927 202.84 78.287 204.28 85.407 205.64C93.727 207.28 97.007 209.56 97.007 214C97.007 218.6 92.807 221.6 86.327 221.6ZM102.494 221V193H103.814V205.92H122.974V193H124.294V221H122.974V207.08H103.814V221H102.494ZM144.264 221.6C136.304 221.6 130.144 215.8 130.144 207C130.144 198.2 136.304 192.4 144.264 192.4C152.224 192.4 158.384 198.2 158.384 207C158.384 215.8 152.224 221.6 144.264 221.6ZM144.264 220.4C151.504 220.4 157.024 215.12 157.024 207C157.024 198.88 151.504 193.6 144.264 193.6C137.024 193.6 131.504 198.88 131.504 207C131.504 215.12 137.024 220.4 144.264 220.4ZM177.212 208.64V208.8L184.892 221H183.292L175.692 208.76H165.572V221H164.252V193H177.052C182.692 193 186.012 195.76 186.012 200.96C186.012 205.92 182.772 208.76 177.532 208.76L177.212 208.64ZM165.572 207.52H177.092C182.052 207.52 184.692 205.16 184.692 200.96C184.692 196.52 182.092 194.2 176.892 194.2H165.572V207.52ZM199.097 221V194.2H188.177V193H211.377V194.2H200.417V221H199.097ZM88.5098 274V246H89.9498L109.27 272H109.35V246H110.67V274H109.23L89.9098 247.96H89.8298V274H88.5098ZM140.31 274L137.23 267.2H119.31L116.23 274H114.79L127.59 246H128.99L141.75 274H140.31ZM119.83 266.04H136.71L128.31 247.44H128.23L119.83 266.04ZM145.854 274V246H147.174V274H145.854ZM154.955 274V246H156.275V272.8H172.635V274H154.955ZM188.163 274.6C180.483 274.6 175.883 270.8 175.603 264.24L176.923 264.08C177.243 270.08 181.203 273.4 188.163 273.4C193.883 273.4 197.483 270.92 197.483 267C197.483 263.16 194.683 261.32 186.883 259.84C179.203 258.36 176.443 256.48 176.443 252.8C176.443 248.36 180.403 245.4 186.363 245.4C192.283 245.4 196.763 248.96 197.323 254.16L196.003 254.32C195.483 249.68 191.643 246.6 186.363 246.6C181.163 246.6 177.763 249.04 177.763 252.76C177.763 255.84 180.123 257.28 187.243 258.64C195.563 260.28 198.843 262.56 198.843 267C198.843 271.6 194.643 274.6 188.163 274.6Z" fill="white"/>
</svg>
